<svg width="685" height="684" xmlns="http://www.w3.org/2000/svg" xmlns:xlink="http://www.w3.org/1999/xlink" overflow="hidden"><defs><clipPath id="clip0"><rect x="713" y="966" width="685" height="684"/></clipPath><clipPath id="clip1"><rect x="714" y="967" width="684" height="683"/></clipPath><clipPath id="clip2"><rect x="714" y="967" width="684" height="683"/></clipPath><clipPath id="clip3"><rect x="714" y="967" width="684" height="683"/></clipPath></defs><g clip-path="url(#clip0)" transform="translate(-713 -966)"><g clip-path="url(#clip1)"><g clip-path="url(#clip2)"><g clip-path="url(#clip3)"><path d="M625.505 42.8342C644.008 42.8342 661.763 57.2013 661.763 78.9052L661.763 273.534C661.763 287.66 650.312 299.106 636.19 299.106L441.829 299.106C420.112 299.106 405.731 281.337 405.731 262.822 405.731 253.972 409.014 244.946 416.35 237.609L476.539 177.393C438.894 146.525 391.364 128.516 341.407 128.516 223.896 128.516 128.236 224.149 128.236 341.687 128.236 459.224 223.843 554.804 341.367 554.804 438.934 554.804 460.678 503.699 494.908 503.699 519.56 503.699 537.556 523.762 537.556 546.333 537.556 593.076 428.716 640.259 341.46 640.259 176.846 640.259 42.7809 506.194 42.7809 341.58 42.7809 176.966 176.886 43.2745 341.5 43.2745 414.336 43.2745 483.169 70.4744 536.795 116.99L600.293 53.4528C607.63 46.1158 616.701 42.8342 625.505 42.8342Z" fill="#A6A6A6" fill-rule="nonzero" fill-opacity="1" transform="matrix(1.00146 0 0 1 714 967)"/></g></g></g></g></svg>